%TF.GenerationSoftware,KiCad,Pcbnew,9.0.7*%
%TF.CreationDate,2026-03-11T21:34:26+05:30*%
%TF.ProjectId,sss,7373732e-6b69-4636-9164-5f7063625858,rev?*%
%TF.SameCoordinates,Original*%
%TF.FileFunction,Copper,L2,Bot*%
%TF.FilePolarity,Positive*%
%FSLAX46Y46*%
G04 Gerber Fmt 4.6, Leading zero omitted, Abs format (unit mm)*
G04 Created by KiCad (PCBNEW 9.0.7) date 2026-03-11 21:34:26*
%MOMM*%
%LPD*%
G01*
G04 APERTURE LIST*
G04 Aperture macros list*
%AMRoundRect*
0 Rectangle with rounded corners*
0 $1 Rounding radius*
0 $2 $3 $4 $5 $6 $7 $8 $9 X,Y pos of 4 corners*
0 Add a 4 corners polygon primitive as box body*
4,1,4,$2,$3,$4,$5,$6,$7,$8,$9,$2,$3,0*
0 Add four circle primitives for the rounded corners*
1,1,$1+$1,$2,$3*
1,1,$1+$1,$4,$5*
1,1,$1+$1,$6,$7*
1,1,$1+$1,$8,$9*
0 Add four rect primitives between the rounded corners*
20,1,$1+$1,$2,$3,$4,$5,0*
20,1,$1+$1,$4,$5,$6,$7,0*
20,1,$1+$1,$6,$7,$8,$9,0*
20,1,$1+$1,$8,$9,$2,$3,0*%
G04 Aperture macros list end*
%TA.AperFunction,ComponentPad*%
%ADD10RoundRect,0.250000X0.550000X-0.550000X0.550000X0.550000X-0.550000X0.550000X-0.550000X-0.550000X0*%
%TD*%
%TA.AperFunction,ComponentPad*%
%ADD11C,1.600000*%
%TD*%
%TA.AperFunction,ComponentPad*%
%ADD12R,1.050000X1.500000*%
%TD*%
%TA.AperFunction,ComponentPad*%
%ADD13O,1.050000X1.500000*%
%TD*%
%TA.AperFunction,ComponentPad*%
%ADD14R,1.700000X1.700000*%
%TD*%
%TA.AperFunction,ComponentPad*%
%ADD15C,1.700000*%
%TD*%
%TA.AperFunction,ComponentPad*%
%ADD16RoundRect,0.250000X-0.550000X-0.550000X0.550000X-0.550000X0.550000X0.550000X-0.550000X0.550000X0*%
%TD*%
G04 APERTURE END LIST*
D10*
%TO.P,U4,1*%
%TO.N,Net-(R20-Pad1)*%
X206880000Y-84305000D03*
D11*
%TO.P,U4,2,-*%
%TO.N,unconnected-(U4A---Pad2)*%
X209420000Y-84305000D03*
%TO.P,U4,3,+*%
%TO.N,unconnected-(U4A-+-Pad3)*%
X211960000Y-84305000D03*
%TO.P,U4,4*%
%TO.N,N/C*%
X214500000Y-84305000D03*
%TO.P,U4,5*%
X217040000Y-84305000D03*
%TO.P,U4,6*%
X219580000Y-84305000D03*
%TO.P,U4,7*%
X222120000Y-84305000D03*
%TO.P,U4,8*%
X222120000Y-76685000D03*
%TO.P,U4,9*%
X219580000Y-76685000D03*
%TO.P,U4,10*%
X217040000Y-76685000D03*
%TO.P,U4,11*%
X214500000Y-76685000D03*
%TO.P,U4,12*%
X211960000Y-76685000D03*
%TO.P,U4,13*%
X209420000Y-76685000D03*
%TO.P,U4,14*%
X206880000Y-76685000D03*
%TD*%
D10*
%TO.P,U3,1*%
%TO.N,Net-(Q1-C)*%
X175760000Y-84000000D03*
D11*
%TO.P,U3,2,-*%
%TO.N,Net-(D2--)*%
X178300000Y-84000000D03*
%TO.P,U3,3,+*%
%TO.N,Net-(D1-+)*%
X180840000Y-84000000D03*
%TO.P,U3,4*%
%TO.N,N/C*%
X183380000Y-84000000D03*
%TO.P,U3,5*%
X185920000Y-84000000D03*
%TO.P,U3,6*%
X188460000Y-84000000D03*
%TO.P,U3,7*%
X191000000Y-84000000D03*
%TO.P,U3,8*%
X191000000Y-76380000D03*
%TO.P,U3,9*%
X188460000Y-76380000D03*
%TO.P,U3,10*%
X185920000Y-76380000D03*
%TO.P,U3,11*%
X183380000Y-76380000D03*
%TO.P,U3,12*%
X180840000Y-76380000D03*
%TO.P,U3,13*%
X178300000Y-76380000D03*
%TO.P,U3,14*%
X175760000Y-76380000D03*
%TD*%
D10*
%TO.P,U2,1*%
%TO.N,Net-(D1--)*%
X122880000Y-83805000D03*
D11*
%TO.P,U2,2,-*%
%TO.N,Net-(U2A--)*%
X125420000Y-83805000D03*
%TO.P,U2,3,+*%
%TO.N,Net-(U2A-+)*%
X127960000Y-83805000D03*
%TO.P,U2,4*%
%TO.N,N/C*%
X130500000Y-83805000D03*
%TO.P,U2,5*%
X133040000Y-83805000D03*
%TO.P,U2,6*%
X135580000Y-83805000D03*
%TO.P,U2,7*%
X138120000Y-83805000D03*
%TO.P,U2,8*%
X138120000Y-76185000D03*
%TO.P,U2,9*%
X135580000Y-76185000D03*
%TO.P,U2,10*%
X133040000Y-76185000D03*
%TO.P,U2,11*%
X130500000Y-76185000D03*
%TO.P,U2,12*%
X127960000Y-76185000D03*
%TO.P,U2,13*%
X125420000Y-76185000D03*
%TO.P,U2,14*%
X122880000Y-76185000D03*
%TD*%
D10*
%TO.P,U1,1*%
%TO.N,Net-(C4-Pad1)*%
X71880000Y-84805000D03*
D11*
%TO.P,U1,2,-*%
%TO.N,Net-(J1-Pin_1)*%
X74420000Y-84805000D03*
%TO.P,U1,3,+*%
%TO.N,Net-(U1A-+)*%
X76960000Y-84805000D03*
%TO.P,U1,4*%
%TO.N,N/C*%
X79500000Y-84805000D03*
%TO.P,U1,5*%
X82040000Y-84805000D03*
%TO.P,U1,6*%
X84580000Y-84805000D03*
%TO.P,U1,7*%
X87120000Y-84805000D03*
%TO.P,U1,8*%
X87120000Y-77185000D03*
%TO.P,U1,9*%
X84580000Y-77185000D03*
%TO.P,U1,10*%
X82040000Y-77185000D03*
%TO.P,U1,11*%
X79500000Y-77185000D03*
%TO.P,U1,12*%
X76960000Y-77185000D03*
%TO.P,U1,13*%
X74420000Y-77185000D03*
%TO.P,U1,14*%
X71880000Y-77185000D03*
%TD*%
%TO.P,R23,1*%
%TO.N,Net-(D3-+)*%
X206380000Y-91000000D03*
%TO.P,R23,2*%
%TO.N,Net-(R20-Pad1)*%
X214000000Y-91000000D03*
%TD*%
%TO.P,R22,1*%
%TO.N,Net-(C2-Pad1)*%
X171880000Y-90500000D03*
%TO.P,R22,2*%
%TO.N,0*%
X179500000Y-90500000D03*
%TD*%
%TO.P,R21,1*%
%TO.N,0*%
X162380000Y-83500000D03*
%TO.P,R21,2*%
%TO.N,Net-(R19-Pad2)*%
X170000000Y-83500000D03*
%TD*%
%TO.P,R20,1*%
%TO.N,Net-(R20-Pad1)*%
X222190000Y-92000000D03*
%TO.P,R20,2*%
%TO.N,Net-(R19-Pad2)*%
X229810000Y-92000000D03*
%TD*%
%TO.P,R19,1*%
%TO.N,Net-(C2-Pad1)*%
X162880000Y-75500000D03*
%TO.P,R19,2*%
%TO.N,Net-(R19-Pad2)*%
X170500000Y-75500000D03*
%TD*%
%TO.P,R18,2*%
%TO.N,0*%
X194000000Y-90500000D03*
%TO.P,R18,1*%
%TO.N,Net-(Q1-E)*%
X186380000Y-90500000D03*
%TD*%
%TO.P,R17,1*%
%TO.N,Net-(R16-Pad2)*%
X173880000Y-69500000D03*
%TO.P,R17,2*%
%TO.N,Net-(Q1-C)*%
X181500000Y-69500000D03*
%TD*%
%TO.P,R16,1*%
%TO.N,Net-(C2-Pad1)*%
X184880000Y-98000000D03*
%TO.P,R16,2*%
%TO.N,Net-(R16-Pad2)*%
X192500000Y-98000000D03*
%TD*%
%TO.P,R15,1*%
%TO.N,Net-(R12-Pad1)*%
X172880000Y-98000000D03*
%TO.P,R15,2*%
%TO.N,Net-(D2--)*%
X180500000Y-98000000D03*
%TD*%
%TO.P,R14,1*%
%TO.N,Net-(R11-Pad2)*%
X143880000Y-85000000D03*
%TO.P,R14,2*%
%TO.N,Net-(D1-+)*%
X151500000Y-85000000D03*
%TD*%
%TO.P,R13,1*%
%TO.N,0*%
X144380000Y-77000000D03*
%TO.P,R13,2*%
%TO.N,Net-(R12-Pad1)*%
X152000000Y-77000000D03*
%TD*%
%TO.P,R12,1*%
%TO.N,Net-(R12-Pad1)*%
X133880000Y-96500000D03*
%TO.P,R12,2*%
%TO.N,Net-(R11-Pad2)*%
X141500000Y-96500000D03*
%TD*%
%TO.P,R11,1*%
%TO.N,Net-(C2-Pad1)*%
X121380000Y-96000000D03*
%TO.P,R11,2*%
%TO.N,Net-(R11-Pad2)*%
X129000000Y-96000000D03*
%TD*%
%TO.P,R10,1*%
%TO.N,Net-(D1--)*%
X108880000Y-86000000D03*
%TO.P,R10,2*%
%TO.N,Net-(U2A-+)*%
X116500000Y-86000000D03*
%TD*%
%TO.P,R9,1*%
%TO.N,0*%
X109190000Y-77000000D03*
%TO.P,R9,2*%
%TO.N,Net-(U2A--)*%
X116810000Y-77000000D03*
%TD*%
%TO.P,R8,1*%
%TO.N,Net-(U2A--)*%
X133880000Y-91000000D03*
%TO.P,R8,2*%
%TO.N,Net-(C2-Pad1)*%
X141500000Y-91000000D03*
%TD*%
%TO.P,R7,1*%
%TO.N,Net-(R5-Pad1)*%
X121380000Y-91000000D03*
%TO.P,R7,2*%
%TO.N,Net-(C5-Pad2)*%
X129000000Y-91000000D03*
%TD*%
%TO.P,R6,1*%
%TO.N,Net-(R5-Pad1)*%
X80500000Y-100000000D03*
%TO.P,R6,2*%
%TO.N,0*%
X88120000Y-100000000D03*
%TD*%
%TO.P,R5,1*%
%TO.N,Net-(R5-Pad1)*%
X67000000Y-99500000D03*
%TO.P,R5,2*%
%TO.N,Net-(C4-Pad1)*%
X74620000Y-99500000D03*
%TD*%
%TO.P,R4,1*%
%TO.N,Net-(C4-Pad1)*%
X80880000Y-91500000D03*
%TO.P,R4,2*%
%TO.N,Net-(U1A-+)*%
X88500000Y-91500000D03*
%TD*%
%TO.P,R3,1*%
%TO.N,Net-(C3-Pad1)*%
X66380000Y-92000000D03*
%TO.P,R3,2*%
%TO.N,Net-(U1A-+)*%
X74000000Y-92000000D03*
%TD*%
%TO.P,R2,1*%
%TO.N,Net-(J1-Pin_1)*%
X57190000Y-86000000D03*
%TO.P,R2,2*%
%TO.N,0*%
X64810000Y-86000000D03*
%TD*%
%TO.P,R1,1*%
%TO.N,Net-(C2-Pad1)*%
X56690000Y-77500000D03*
%TO.P,R1,2*%
%TO.N,Net-(C1-Pad2)*%
X64310000Y-77500000D03*
%TD*%
D12*
%TO.P,Q1,1,C*%
%TO.N,Net-(Q1-C)*%
X133460000Y-108500000D03*
D13*
%TO.P,Q1,2,B*%
%TO.N,unconnected-(Q1-B-Pad2)*%
X134730000Y-108500000D03*
%TO.P,Q1,3,E*%
%TO.N,Net-(Q1-E)*%
X136000000Y-108500000D03*
%TD*%
D14*
%TO.P,J1,1,Pin_1*%
%TO.N,Net-(J1-Pin_1)*%
X84000000Y-48000000D03*
D15*
%TO.P,J1,2,Pin_2*%
%TO.N,0*%
X84000000Y-50540000D03*
%TD*%
D16*
%TO.P,D3,1,+*%
%TO.N,Net-(D3-+)*%
X131380000Y-115000000D03*
D11*
%TO.P,D3,2,-*%
%TO.N,0*%
X139000000Y-115000000D03*
%TD*%
D16*
%TO.P,D2,1,+*%
%TO.N,Net-(D1--)*%
X116380000Y-114500000D03*
D11*
%TO.P,D2,2,-*%
%TO.N,Net-(D2--)*%
X124000000Y-114500000D03*
%TD*%
D16*
%TO.P,D1,1,+*%
%TO.N,Net-(D1-+)*%
X146380000Y-114000000D03*
D11*
%TO.P,D1,2,-*%
%TO.N,Net-(D1--)*%
X154000000Y-114000000D03*
%TD*%
%TO.P,C7,1*%
%TO.N,Net-(C2-Pad1)*%
X234000000Y-81000000D03*
%TO.P,C7,2*%
%TO.N,Net-(Q1-C)*%
X239000000Y-81000000D03*
%TD*%
%TO.P,C6,1*%
%TO.N,Net-(D1--)*%
X132500000Y-69000000D03*
%TO.P,C6,2*%
%TO.N,Net-(U2A-+)*%
X137500000Y-69000000D03*
%TD*%
%TO.P,C5,1*%
%TO.N,Net-(U2A-+)*%
X121500000Y-69500000D03*
%TO.P,C5,2*%
%TO.N,Net-(C5-Pad2)*%
X126500000Y-69500000D03*
%TD*%
%TO.P,C4,1*%
%TO.N,Net-(C4-Pad1)*%
X93500000Y-86500000D03*
%TO.P,C4,2*%
%TO.N,Net-(U1A-+)*%
X98500000Y-86500000D03*
%TD*%
%TO.P,C3,1*%
%TO.N,Net-(C3-Pad1)*%
X93000000Y-78500000D03*
%TO.P,C3,2*%
%TO.N,0*%
X98000000Y-78500000D03*
%TD*%
%TO.P,C2,1*%
%TO.N,Net-(C2-Pad1)*%
X85000000Y-71000000D03*
%TO.P,C2,2*%
%TO.N,0*%
X90000000Y-71000000D03*
%TD*%
%TO.P,C1,1*%
%TO.N,0*%
X73500000Y-71000000D03*
%TO.P,C1,2*%
%TO.N,Net-(C1-Pad2)*%
X78500000Y-71000000D03*
%TD*%
M02*
