M48
; DRILL file {KiCad 9.0.7} date 2026-03-11T21:43:01+0530
; FORMAT={-:-/ absolute / metric / decimal}
; #@! TF.CreationDate,2026-03-11T21:43:01+05:30
; #@! TF.GenerationSoftware,Kicad,Pcbnew,9.0.7
; #@! TF.FileFunction,Plated,1,2,PTH
FMAT,2
METRIC
; #@! TA.AperFunction,Plated,PTH,ComponentDrill
T1C0.750
; #@! TA.AperFunction,Plated,PTH,ComponentDrill
T2C0.800
; #@! TA.AperFunction,Plated,PTH,ComponentDrill
T3C1.000
%
G90
G05
T1
X133.46Y-108.5
X134.73Y-108.5
X136.0Y-108.5
T2
X56.69Y-77.5
X57.19Y-86.0
X64.31Y-77.5
X64.81Y-86.0
X66.38Y-92.0
X67.0Y-99.5
X71.88Y-77.185
X71.88Y-84.805
X73.5Y-71.0
X74.0Y-92.0
X74.42Y-77.185
X74.42Y-84.805
X74.62Y-99.5
X76.96Y-77.185
X76.96Y-84.805
X78.5Y-71.0
X79.5Y-77.185
X79.5Y-84.805
X80.5Y-100.0
X80.88Y-91.5
X82.04Y-77.185
X82.04Y-84.805
X84.58Y-77.185
X84.58Y-84.805
X85.0Y-71.0
X87.12Y-77.185
X87.12Y-84.805
X88.12Y-100.0
X88.5Y-91.5
X90.0Y-71.0
X93.0Y-78.5
X93.5Y-86.5
X98.0Y-78.5
X98.5Y-86.5
X108.88Y-86.0
X109.19Y-77.0
X116.38Y-114.5
X116.5Y-86.0
X116.81Y-77.0
X121.38Y-91.0
X121.38Y-96.0
X121.5Y-69.5
X122.88Y-76.185
X122.88Y-83.805
X124.0Y-114.5
X125.42Y-76.185
X125.42Y-83.805
X126.5Y-69.5
X127.96Y-76.185
X127.96Y-83.805
X129.0Y-91.0
X129.0Y-96.0
X130.5Y-76.185
X130.5Y-83.805
X131.38Y-115.0
X132.5Y-69.0
X133.04Y-76.185
X133.04Y-83.805
X133.88Y-91.0
X133.88Y-96.5
X135.58Y-76.185
X135.58Y-83.805
X137.5Y-69.0
X138.12Y-76.185
X138.12Y-83.805
X139.0Y-115.0
X141.5Y-91.0
X141.5Y-96.5
X143.88Y-85.0
X144.38Y-77.0
X146.38Y-114.0
X151.5Y-85.0
X152.0Y-77.0
X154.0Y-114.0
X162.38Y-83.5
X162.88Y-75.5
X170.0Y-83.5
X170.5Y-75.5
X171.88Y-90.5
X172.88Y-98.0
X173.88Y-69.5
X175.76Y-76.38
X175.76Y-84.0
X178.3Y-76.38
X178.3Y-84.0
X179.5Y-90.5
X180.5Y-98.0
X180.84Y-76.38
X180.84Y-84.0
X181.5Y-69.5
X183.38Y-76.38
X183.38Y-84.0
X184.88Y-98.0
X185.92Y-76.38
X185.92Y-84.0
X186.38Y-90.5
X188.46Y-76.38
X188.46Y-84.0
X191.0Y-76.38
X191.0Y-84.0
X192.5Y-98.0
X194.0Y-90.5
X206.38Y-91.0
X206.88Y-76.685
X206.88Y-84.305
X209.42Y-76.685
X209.42Y-84.305
X211.96Y-76.685
X211.96Y-84.305
X214.0Y-91.0
X214.5Y-76.685
X214.5Y-84.305
X217.04Y-76.685
X217.04Y-84.305
X219.58Y-76.685
X219.58Y-84.305
X222.12Y-76.685
X222.12Y-84.305
X222.19Y-92.0
X229.81Y-92.0
X234.0Y-81.0
X239.0Y-81.0
T3
X84.0Y-48.0
X84.0Y-50.54
M30
